<?xml version="1.0" encoding="UTF-8"?>
<svg id="Layer_2" data-name="Layer 2" xmlns="http://www.w3.org/2000/svg" viewBox="0 0 2432.63 498.03">
  <defs>
    <style>
      .cls-1 {
        fill: #5c90ff;
      }

      .cls-2 {
        fill: #153788;
      }
    </style>
  </defs>
  <g id="Capa_1" data-name="Capa 1">
    <g>
      <g>
        <path class="cls-2" d="M594.26,206.24c-11.21,89.53-26.79,129.87-74.3,132.92-60.89,3.91-73.27-80.01-66.08-132.92h-89.85c-18.46,219.25,169.51,257.68,261.56,176.4,36.87-32.55,54.3-118.65,44.85-176.4h-76.17Z"/>
        <path class="cls-2" d="M373.77,297.73c-1.88,41.3-134.79,81.26-200.09,59.21-14.04-4.74,25.19-3.51,14.31-4.12,101.13,1.59,119.53-33.31,131.44-56.67,18.78-49.46-19.76-86.03-47.78-101.49-55.67-31.5-163.61-29.93-220.44,12.49-65.2,46.78-68.99,144.34-6.52,191.59,95.76,72.42,299.26,46.72,388.71-21.05-1.08.82,78.61-51.5-59.64-79.97ZM171.92,248.01c32.1-3.53,63.78,7.4,53.7,29.39-14.19,30.4-123.94,22.17-123.26,6.84-.46-14.2,21.72-30.97,69.56-36.22Z"/>
      </g>
      <path class="cls-2" d="M2099.2,305.08c-17.88-189.28-411.54-133.94-322.81,63.63,60.68,124.81,333.6,92.54,322.81-63.63ZM1932.46,274.9c88.36.54,86.36,86.86-10.68,82.56-73.14-6.56-80.99-78.87,10.68-82.56Z"/>
      <path class="cls-2" d="M2196.06,420.64c11.39-95.53,12.95-137.23,85.63-136.64,52.36.42,64.34,80.18,57.03,136.64h91.31c27.16-239.95-165.27-267.62-258.81-180.89-37.47,34.74-62.17,119.26-52.57,180.89h77.41Z"/>
      <path class="cls-2" d="M1832.99,333.05c-74.57,38.43-117.07,27.08-133.59-9.34,2.27-13.56,4.97-33.24,5.39-48.74.66-24.68.99-41.84-3.39-69.01l-99.46.07c6.4,43.86,6.37,76.11-4.19,106.78-.38-.09-6.16,34.6-67.78,42.78-7.1.94-18.34,1.95-30.09,1.6-9.36-.28-19.04-1.42-27.22-4.15-.54-.18-11.83,15.2-20.52,33.18-2.9,6-5.51,12.28-7.34,18.37-5.57,18.55-11.27,33.91-10.56,34.11,140.55,21.53,214.16-27.72,214.16-28.63,44.17,32.32,115.08,39.37,211.05,5.45l-26.46-82.48Z"/>
      <path class="cls-2" d="M2197.41,215.16h-85.09s-3.09,65.52-2.16,95.25c.94,29.74,2.16,109.49,2.16,109.49h85.09v-204.75Z"/>
      <path class="cls-2" d="M1531.99,188.63c-34.54.83-74.03,6.32-106.52,20.77h-81.03s-.9,74.32-2.33,97.28c-1.43,22.96,1.84,81.97,1.51,96.5l-.05,2.07c-.09,4.15-.17,8.47-.22,12.88,0,0,.16-.01.44-.04.19.4.51.68.98.82,36.08,11.05,61.53,16.34,90.19,20.79.18-5.23-4.54-93.56,9.36-123.39,10.61-22.76,57.49-35.69,89.51-35.6l-1.84-92.09Z"/>
      <g>
        <path class="cls-1" d="M813.23,497.53c-1.26-42.63.69-121.78,2.2-159.15l.08-2.01c1.75-43.43,1.55-101.15,24.53-147.49,26.36-53.14,86.99-87.45,147.88-88.38l.24,91.22c-26.02.4-52.82,16.64-63.72,38.62-14.29,28.82-15.52,70.02-17.07,108.52l-.08,2.02c-1.43,35.42-3.37,116.46-2.17,157.14l-91.89-.5Z"/>
        <path class="cls-1" d="M1058.57,314.39c-18.53,10.66-9.91-24.47-33.75-10.28-113.12,67.33-276.47,27.85-280.99-97.86h-73.12c-11.81,140.56,80.66,210.16,223.86,211.63,68.31.7,126.21-14.12,150.45-32.97,19.62-15.26,3.46-39.36,13.55-70.52Z"/>
        <path class="cls-2" d="M1325.48,305.08c-17.53-185.66-403.66-131.37-316.63,62.41,59.51,122.42,327.22,90.77,316.63-62.41ZM1161.94,275.48c86.67.53,84.71,85.2-10.47,80.98-71.74-6.44-79.44-77.36,10.47-80.98Z"/>
      </g>
    </g>
    <path class="cls-1" d="M13.98,4.84h55.83c6.84,0,12.7.86,17.57,2.58,4.87,1.72,8.92,4.25,12.13,7.58,2.18,2.26,3.89,4.89,5.13,7.9,1.24,3.01,1.87,6.45,1.87,10.32v.32c0,6.56-1.58,11.85-4.73,15.88-3.15,4.03-7.16,7.12-12.01,9.27,6.67,2.26,11.95,5.51,15.86,9.75,3.91,4.25,5.86,10.18,5.86,17.81v.32c0,9.78-3.61,17.41-10.83,22.89-7.22,5.48-17.37,8.22-30.45,8.22H13.98V4.84ZM62.43,49.82c4.67,0,8.23-.81,10.67-2.42,2.44-1.61,3.66-4.08,3.66-7.42v-.32c0-3.12-1.14-5.51-3.43-7.17-2.29-1.67-5.71-2.5-10.28-2.5h-19.63v19.83h19ZM66.79,92.54c4.67,0,8.26-.89,10.75-2.66s3.74-4.33,3.74-7.66v-.32c0-3.12-1.2-5.59-3.58-7.42-2.39-1.83-6.13-2.74-11.22-2.74h-23.06v20.8h23.37Z"/>
    <path class="cls-1" d="M122.87,0h31v22.57h-31V0ZM123.49,30.47h29.75v87.22h-29.75V30.47Z"/>
    <path class="cls-1" d="M225.26,119.63c-3.21,0-6.09-.35-8.62-1.05-2.54-.7-4.84-1.61-6.92-2.74-2.07-1.13-3.94-2.47-5.6-4.03-1.66-1.56-3.16-3.14-4.51-4.76v10.64h-29.75V0h29.75l-.16,42.08c1.45-1.83,3.01-3.55,4.67-5.16,1.66-1.61,3.5-3.04,5.53-4.27,2.03-1.23,4.31-2.23,6.85-2.98,2.54-.75,5.37-1.13,8.49-1.13,4.98,0,9.74,1.05,14.25,3.14,4.52,2.1,8.49,5.08,11.92,8.95,3.43,3.87,6.15,8.6,8.18,14.19,2.03,5.59,3.04,11.88,3.04,18.86v.32c0,7.09-1.01,13.46-3.03,19.11-2.02,5.64-4.71,10.43-8.08,14.35-3.37,3.92-7.3,6.93-11.81,9.03-4.51,2.1-9.25,3.14-14.22,3.14ZM216.05,94c4.86,0,8.94-1.83,12.25-5.48,3.31-3.65,4.96-8.44,4.96-14.35v-.32c0-5.8-1.65-10.53-4.96-14.19-3.31-3.65-7.39-5.48-12.25-5.48-2.38,0-4.6.48-6.67,1.45-2.07.97-3.88,2.34-5.43,4.11-1.55,1.77-2.77,3.84-3.64,6.21-.88,2.37-1.32,5-1.32,7.9v.32c0,2.9.44,5.56,1.32,7.98.88,2.42,2.09,4.51,3.64,6.29s3.36,3.14,5.43,4.11c2.07.97,4.29,1.45,6.67,1.45Z"/>
    <path class="cls-1" d="M275.01,0h29.75v117.7h-29.75V0Z"/>
    <path class="cls-1" d="M320.34,0h31v22.57h-31V0ZM320.97,30.47h29.75v87.22h-29.75V30.47Z"/>
    <path class="cls-1" d="M409.29,119.79c-6.75,0-12.96-1.18-18.62-3.55-5.66-2.36-10.57-5.61-14.72-9.75-4.15-4.14-7.38-8.95-9.66-14.43-2.29-5.48-3.43-11.34-3.43-17.57v-.32c0-6.23,1.17-12.12,3.5-17.65,2.34-5.53,5.58-10.37,9.74-14.51,4.15-4.14,9.09-7.42,14.8-9.84,5.71-2.42,11.94-3.63,18.69-3.63s12.95,1.21,18.62,3.63c5.66,2.42,10.57,5.67,14.72,9.75,4.15,4.09,7.37,8.87,9.66,14.35,2.28,5.48,3.43,11.34,3.43,17.57v.32c0,6.24-1.17,12.12-3.5,17.66-2.34,5.54-5.58,10.37-9.74,14.51-4.15,4.14-9.09,7.42-14.8,9.84-5.71,2.42-11.94,3.63-18.69,3.63ZM409.6,93.67c2.7,0,5.14-.51,7.32-1.52,2.18-1.01,4.02-2.4,5.53-4.16,1.5-1.76,2.67-3.81,3.5-6.16.83-2.34,1.25-4.8,1.25-7.36v-.32c0-2.67-.44-5.17-1.32-7.51-.88-2.35-2.13-4.4-3.74-6.16-1.61-1.76-3.51-3.17-5.69-4.24-2.18-1.07-4.57-1.6-7.17-1.6s-5.14.51-7.32,1.52c-2.18,1.01-4.03,2.4-5.53,4.16-1.51,1.76-2.67,3.81-3.5,6.16-.83,2.35-1.25,4.8-1.25,7.35v.32c0,2.67.44,5.17,1.32,7.52.88,2.35,2.13,4.4,3.74,6.15,1.61,1.76,3.5,3.17,5.69,4.24,2.18,1.07,4.57,1.6,7.17,1.6Z"/>
    <path class="cls-1" d="M501.35,119.47c-8.98,0-15.97-2.2-20.98-6.61-5.01-4.41-7.52-11.82-7.52-22.25v-35.47h-9.97v-24.67h9.97V8.38h29.75v22.09h19.63v24.67h-19.63v29.5c0,3.12.67,5.35,2.03,6.69,1.35,1.34,3.37,2.02,6.08,2.02,1.97,0,3.89-.27,5.76-.81,1.87-.54,3.69-1.23,5.45-2.1v24.02c-2.7,1.51-5.76,2.72-9.19,3.63-3.43.91-7.22,1.37-11.38,1.37Z"/>
    <path class="cls-1" d="M575.82,119.79c-6.65,0-12.72-1.1-18.23-3.31-5.51-2.2-10.26-5.27-14.25-9.19-4-3.92-7.11-8.68-9.35-14.27-2.23-5.59-3.35-11.77-3.35-18.54v-.32c0-6.34,1.04-12.28,3.12-17.81,2.08-5.53,5.01-10.37,8.8-14.51,3.79-4.14,8.28-7.39,13.47-9.75,5.19-2.36,10.9-3.55,17.14-3.55,7.27,0,13.58,1.29,18.93,3.87,5.35,2.58,9.76,6.05,13.24,10.4,3.48,4.35,6.08,9.41,7.79,15.16,1.71,5.75,2.57,11.85,2.57,18.3v3.06c0,1.08-.05,2.15-.16,3.22h-56.39c1.14,4.84,3.3,8.44,6.46,10.8,3.17,2.37,7.09,3.55,11.76,3.55,3.53,0,6.78-.7,9.74-2.1,2.96-1.4,5.94-3.65,8.96-6.77l16.36,14.03c-4.05,5.38-9.06,9.67-15.03,12.9-5.97,3.22-13.16,4.84-21.57,4.84ZM587.97,66.91c-.52-4.84-2.08-8.68-4.67-11.53-2.6-2.85-5.92-4.27-9.97-4.27s-7.17,1.43-9.66,4.27c-2.49,2.85-4.15,6.69-4.99,11.53h29.29Z"/>
    <path class="cls-1" d="M667.15,119.79c-6.34,0-12.2-1.21-17.6-3.63-5.4-2.42-10.05-5.67-13.94-9.75-3.89-4.08-6.96-8.89-9.19-14.43-2.23-5.53-3.35-11.37-3.35-17.49v-.32c0-6.13,1.11-11.96,3.35-17.49,2.23-5.54,5.32-10.37,9.27-14.51,3.95-4.14,8.7-7.42,14.25-9.84,5.55-2.42,11.66-3.63,18.3-3.63,8.72,0,15.99,1.77,21.81,5.32,5.81,3.55,10.54,8.28,14.18,14.19l-20.1,15.48c-2.08-2.9-4.31-5.16-6.7-6.77-2.39-1.61-5.4-2.42-9.03-2.42-2.39,0-4.6.51-6.62,1.53-2.03,1.02-3.77,2.42-5.22,4.19-1.46,1.77-2.6,3.82-3.43,6.13-.83,2.31-1.25,4.81-1.25,7.5v.32c0,2.8.41,5.4,1.25,7.82.83,2.42,1.97,4.51,3.43,6.29,1.45,1.77,3.22,3.17,5.3,4.19,2.08,1.02,4.36,1.53,6.85,1.53,3.53,0,6.52-.81,8.96-2.42,2.44-1.61,4.85-3.81,7.24-6.61l19.78,14.83c-3.95,6.02-8.88,10.86-14.8,14.51-5.92,3.65-13.5,5.48-22.74,5.48Z"/>
    <path class="cls-1" d="M738.49,119.63c-4.05,0-7.79-.59-11.22-1.77-3.43-1.18-6.41-2.9-8.96-5.16-2.55-2.26-4.54-5.05-6-8.38-1.46-3.33-2.18-7.2-2.18-11.61v-.32c0-4.51.8-8.49,2.41-11.93,1.61-3.44,3.84-6.29,6.7-8.55,2.86-2.26,6.31-3.98,10.36-5.16,4.05-1.18,8.57-1.77,13.55-1.77,3.95,0,7.71.35,11.29,1.05,3.58.7,6.57,1.48,8.96,2.34v-1.45c0-4.52-1.38-8.01-4.13-10.48-2.75-2.47-6.99-3.71-12.7-3.71-4.47,0-8.52.43-12.15,1.29-3.64.86-7.32,2.04-11.06,3.55l-6.08-21.6c4.78-2.04,9.84-3.68,15.19-4.92,5.35-1.23,11.66-1.85,18.93-1.85s13.99.91,19.24,2.74c5.24,1.83,9.53,4.46,12.85,7.9,3.22,3.22,5.53,7.12,6.93,11.69,1.4,4.57,2.1,9.92,2.1,16.04v50.14h-29.29v-9.03c-2.91,3.33-6.36,5.99-10.36,7.98-4,1.99-8.8,2.98-14.41,2.98ZM749.09,100.44c4.36,0,7.89-1.29,10.59-3.87,2.7-2.58,4.05-6.07,4.05-10.48v-4.03c-1.46-.65-3.19-1.18-5.22-1.61-2.03-.43-4.13-.65-6.31-.65-4.36,0-7.71.99-10.05,2.98-2.34,1.99-3.5,4.59-3.5,7.82v.32c0,3.01.99,5.35,2.96,7.01,1.97,1.67,4.46,2.5,7.48,2.5Z"/>
    <path class="cls-2" d="M1650.24,96.43c71.58-1.46,72.25,81.38-6.45,79.42-59.41-4.66-67.68-73.83,6.45-79.42Z"/>
    <path class="cls-2" d="M1978.73,164.85l78.19-52.95c-34.27-9.82-71.29-14.35-108.48-13.88l-50.18,69.41h.67c26.24-4.52,53.51-5.46,79.8-2.59Z"/>
  </g>
</svg>