<?xml version="1.0" encoding="UTF-8"?>
<svg id="Layer_2" data-name="Layer 2" xmlns="http://www.w3.org/2000/svg" viewBox="0 0 2432.63 493.01">
  <defs>
    <style>
      .cls-1 {
        fill: #5c90ff;
      }

      .cls-2 {
        fill: #153788;
      }
    </style>
  </defs>
  <g id="Capa_1" data-name="Capa 1">
    <g>
      <path class="cls-2" d="M594.26,201.22c-11.21,89.53-26.79,129.87-74.3,132.92-60.89,3.91-73.27-80.01-66.08-132.92h-89.85c-18.46,219.25,169.51,257.68,261.56,176.4,36.87-32.55,54.3-118.65,44.85-176.4h-76.17Z"/>
      <path class="cls-2" d="M373.77,292.7c-1.88,41.3-134.79,81.26-200.09,59.21-14.04-4.74,25.19-3.51,14.31-4.12,101.13,1.59,119.53-33.31,131.44-56.67,18.78-49.46-19.76-86.03-47.78-101.49-55.67-31.5-163.61-29.93-220.44,12.49-65.2,46.78-68.99,144.34-6.52,191.59,95.76,72.42,299.26,46.72,388.71-21.05-1.08.82,78.61-51.5-59.64-79.97ZM171.92,242.99c32.1-3.53,63.78,7.4,53.7,29.39-14.19,30.4-123.94,22.17-123.26,6.84-.46-14.2,21.72-30.97,69.56-36.22Z"/>
    </g>
    <path class="cls-2" d="M2099.2,300.06c-17.88-189.28-411.54-133.94-322.81,63.63,60.68,124.81,333.6,92.54,322.81-63.63ZM1932.46,269.88c88.36.54,86.36,86.86-10.68,82.56-73.14-6.56-80.99-78.87,10.68-82.56Z"/>
    <path class="cls-2" d="M2196.06,415.61c11.39-95.53,12.95-137.23,85.63-136.64,52.36.42,64.34,80.18,57.03,136.64h91.31c27.16-239.95-165.27-267.62-258.81-180.89-37.47,34.74-62.17,119.26-52.57,180.89h77.41Z"/>
    <path class="cls-2" d="M1656.57,95.02c71.58-1.46,72.25,81.38-6.45,79.42-59.41-4.66-67.68-73.83,6.45-79.42Z"/>
    <path class="cls-2" d="M1832.99,328.02c-74.57,38.43-117.07,27.08-133.59-9.34,2.27-13.56,4.97-33.24,5.39-48.74.66-24.68.99-41.84-3.39-69.01l-99.46.07c6.4,43.86,6.37,76.11-4.19,106.78-.38-.09-6.16,34.6-67.78,42.78-7.1.94-18.34,1.95-30.09,1.6-9.36-.28-19.04-1.42-27.22-4.15-.54-.18-11.83,15.2-20.52,33.18-2.9,6-5.51,12.28-7.34,18.37-5.57,18.55-11.27,33.91-10.56,34.11,140.55,21.53,214.16-27.72,214.16-28.63,44.17,32.32,115.08,39.37,211.05,5.45l-26.46-82.48Z"/>
    <path class="cls-2" d="M2197.41,210.14h-85.09s-3.09,65.52-2.16,95.25c.94,29.74,2.16,109.49,2.16,109.49h85.09v-204.75Z"/>
    <path class="cls-2" d="M1531.99,183.61c-34.54.83-74.03,6.32-106.52,20.77h-81.03s-.9,74.32-2.33,97.28c-1.43,22.96,1.84,81.97,1.51,96.5l-.05,2.07c-.09,4.15-.17,8.47-.22,12.88,0,0,.16-.01.44-.04.19.4.51.68.98.82,36.08,11.05,61.53,16.34,90.19,20.79.18-5.23-4.54-93.56,9.36-123.39,10.61-22.76,57.49-35.69,89.51-35.6l-1.84-92.09Z"/>
    <g>
      <path class="cls-1" d="M813.23,492.51c-1.26-42.63.69-121.78,2.2-159.15l.08-2.01c1.75-43.43,1.55-101.15,24.53-147.49,26.36-53.14,86.99-87.45,147.88-88.38l.24,91.22c-26.02.4-52.82,16.64-63.72,38.62-14.29,28.82-15.52,70.02-17.07,108.52l-.08,2.02c-1.43,35.42-3.37,116.46-2.17,157.14l-91.89-.5Z"/>
      <path class="cls-1" d="M1058.57,309.36c-18.53,10.66-9.91-24.47-33.75-10.28-113.12,67.33-276.47,27.85-280.99-97.86h-73.12c-11.81,140.56,80.66,210.16,223.86,211.63,68.31.7,126.21-14.12,150.45-32.97,19.62-15.26,3.46-39.36,13.55-70.52Z"/>
      <path class="cls-2" d="M1325.48,300.06c-17.53-185.66-403.66-131.37-316.63,62.41,59.51,122.42,327.22,90.77,316.63-62.41ZM1161.94,270.46c86.67.53,84.71,85.2-10.47,80.98-71.74-6.44-79.44-77.36,10.47-80.98Z"/>
    </g>
    <g>
      <path class="cls-1" d="M49.9,4.68h95.88v25.75h-63.3v16.54h57.32v23.88h-57.32v17.32h64.15v25.75H49.9V4.68Z"/>
      <path class="cls-1" d="M202.76,115.79c-7.85,0-15.47-1.01-22.86-3.04-7.39-2.03-14.33-5.17-20.81-9.44l12.11-17.95c5.34,3.23,10.77,5.65,16.29,7.26,5.51,1.62,10.66,2.42,15.44,2.42,5.46,0,8.19-1.51,8.19-4.53v-.31c0-1.66-1.25-2.97-3.75-3.9-2.5-.94-6.2-2.03-11.09-3.28-4.55-1.04-8.82-2.26-12.8-3.67-3.98-1.4-7.45-3.12-10.41-5.15-2.96-2.03-5.29-4.5-6.99-7.41-1.71-2.91-2.56-6.5-2.56-10.77v-.31c0-4.47.94-8.45,2.82-11.94,1.88-3.48,4.46-6.4,7.76-8.74,3.3-2.34,7.19-4.14,11.69-5.38,4.49-1.25,9.41-1.87,14.76-1.87,6.82,0,13.53.86,20.13,2.57,6.59,1.72,12.57,4.14,17.91,7.26l-11.09,18.73c-4.78-2.39-9.61-4.29-14.5-5.7-4.89-1.4-9.16-2.11-12.8-2.11-2.5,0-4.38.39-5.63,1.17-1.25.78-1.88,1.74-1.88,2.89v.31c0,1.67,1.28,2.99,3.84,3.98,2.56.99,6.28,2.16,11.18,3.51,4.55,1.15,8.81,2.42,12.8,3.82,3.98,1.4,7.45,3.12,10.41,5.15,2.96,2.03,5.29,4.5,6.99,7.41,1.71,2.91,2.56,6.4,2.56,10.46v.31c0,4.68-.91,8.77-2.73,12.25-1.82,3.49-4.38,6.43-7.68,8.82-3.3,2.39-7.28,4.19-11.94,5.38-4.67,1.2-9.78,1.8-15.36,1.8Z"/>
      <path class="cls-1" d="M302.56,115.95c-6.94,0-13.37-1.17-19.28-3.51-5.92-2.34-11-5.49-15.27-9.44-4.26-3.95-7.62-8.61-10.07-13.97-2.45-5.36-3.67-11-3.67-16.93v-.31c0-5.93,1.22-11.57,3.67-16.93,2.44-5.36,5.83-10.04,10.15-14.04,4.32-4,9.52-7.18,15.61-9.52,6.08-2.34,12.77-3.51,20.05-3.51,9.55,0,17.51,1.72,23.89,5.15,6.37,3.43,11.54,8.01,15.53,13.73l-22.01,14.98c-2.28-2.81-4.72-4.99-7.34-6.56-2.62-1.56-5.92-2.34-9.9-2.34-2.62,0-5.03.49-7.25,1.48-2.22.99-4.12,2.34-5.71,4.06-1.59,1.72-2.84,3.69-3.75,5.93-.91,2.24-1.37,4.66-1.37,7.26v.31c0,2.71.45,5.23,1.37,7.57.91,2.34,2.16,4.37,3.75,6.09,1.59,1.72,3.52,3.07,5.8,4.06,2.27.99,4.78,1.48,7.51,1.48,3.87,0,7.14-.78,9.81-2.34,2.67-1.56,5.32-3.69,7.93-6.4l21.67,14.36c-4.32,5.83-9.73,10.51-16.21,14.04-6.48,3.54-14.79,5.31-24.91,5.31Z"/>
      <path class="cls-1" d="M390.25,115.79c-9.95,0-17.7-2.76-23.24-8.27-5.55-5.51-8.32-13.11-8.32-22.78V29.49h32.59v45.73c0,4.68,1.18,8.22,3.54,10.61,2.36,2.39,5.5,3.59,9.43,3.59s6.99-1.19,9.51-3.59c2.53-2.39,3.79-5.93,3.79-10.61V29.49h32.59v84.43h-32.59v-11.55c-2.92,3.54-6.57,6.66-10.95,9.36-4.38,2.71-9.83,4.06-16.34,4.06Z"/>
      <path class="cls-1" d="M517.53,115.95c-7.28,0-13.93-1.07-19.96-3.2-6.03-2.13-11.23-5.1-15.61-8.9-4.38-3.8-7.79-8.4-10.24-13.81-2.45-5.41-3.67-11.39-3.67-17.95v-.31c0-6.14,1.14-11.89,3.41-17.24,2.27-5.36,5.49-10.04,9.64-14.05,4.15-4,9.07-7.15,14.76-9.44,5.69-2.29,11.94-3.43,18.77-3.43,7.96,0,14.87,1.25,20.73,3.75,5.86,2.5,10.69,5.85,14.5,10.07,3.81,4.21,6.65,9.1,8.53,14.67,1.88,5.57,2.81,11.47,2.81,17.71v2.96c0,1.04-.06,2.08-.17,3.12h-61.76c1.25,4.68,3.61,8.17,7.08,10.46,3.47,2.29,7.76,3.43,12.88,3.43,3.87,0,7.42-.68,10.66-2.03,3.24-1.35,6.51-3.53,9.81-6.55l17.91,13.58c-4.44,5.2-9.92,9.36-16.46,12.48-6.54,3.12-14.42,4.68-23.63,4.68ZM530.83,64.76c-.57-4.68-2.28-8.4-5.12-11.16-2.84-2.75-6.48-4.14-10.92-4.14s-7.85,1.38-10.58,4.14c-2.73,2.76-4.55,6.48-5.46,11.16h32.07Z"/>
      <path class="cls-1" d="M579.97,0h32.59v113.92h-32.59V0Z"/>
      <path class="cls-1" d="M661.17,115.79c-4.43,0-8.53-.57-12.28-1.72-3.75-1.14-7.02-2.81-9.81-4.99-2.79-2.19-4.98-4.89-6.57-8.11-1.59-3.23-2.39-6.97-2.39-11.24v-.31c0-4.37.88-8.22,2.65-11.55,1.76-3.33,4.21-6.09,7.34-8.27,3.13-2.18,6.91-3.85,11.35-4.99,4.43-1.14,9.38-1.72,14.84-1.72,4.32,0,8.45.34,12.37,1.01,3.92.68,7.19,1.43,9.81,2.26v-1.4c0-4.37-1.51-7.75-4.52-10.14-3.02-2.39-7.65-3.59-13.9-3.59-4.89,0-9.33.42-13.31,1.25-3.98.83-8.02,1.98-12.11,3.43l-6.65-20.91c5.23-1.97,10.77-3.56,16.63-4.76,5.86-1.2,12.77-1.8,20.73-1.8s15.33.89,21.07,2.65c5.74,1.77,10.43,4.32,14.08,7.65,3.52,3.12,6.06,6.89,7.59,11.31,1.54,4.42,2.3,9.6,2.3,15.53v48.53h-32.08v-8.74c-3.18,3.23-6.97,5.8-11.34,7.72-4.38,1.92-9.64,2.89-15.78,2.89ZM672.78,97.22c4.78,0,8.64-1.25,11.6-3.75,2.96-2.5,4.44-5.87,4.44-10.14v-3.9c-1.59-.62-3.5-1.14-5.71-1.56-2.22-.41-4.52-.62-6.91-.62-4.78,0-8.45.96-11.01,2.89-2.56,1.93-3.84,4.45-3.84,7.57v.31c0,2.91,1.08,5.18,3.24,6.79,2.16,1.61,4.89,2.42,8.19,2.42Z"/>
    </g>
    <path class="cls-2" d="M1971.36,164.4l78.19-52.95c-34.27-9.82-71.29-14.35-108.48-13.88l-50.18,69.41h.67c26.24-4.52,53.51-5.46,79.8-2.59Z"/>
  </g>
</svg>