<?xml version="1.0" encoding="UTF-8"?>
<svg id="Layer_2" data-name="Layer 2" xmlns="http://www.w3.org/2000/svg" viewBox="0 0 374.31 397.52">
  <defs>
    <style>
      .cls-1 {
        fill: #5c90ff;
      }
    </style>
  </defs>
  <g id="Capa_1" data-name="Capa 1">
    <path class="cls-1" d="M142.53,397.02c-1.26-42.63.69-121.78,2.2-159.15l.08-2.01c1.75-43.43,1.55-101.15,24.53-147.49C195.69,35.23,256.33.93,317.21,0l.24,91.22c-26.02.4-52.82,16.64-63.72,38.62-14.29,28.82-15.52,70.02-17.07,108.52l-.08,2.02c-1.43,35.42-3.37,116.46-2.17,157.14l-91.89-.5Z"/>
    <path class="cls-1" d="M374.31,271.61c-24.24,18.85-82.14,32.97-150.45,32.97C121.96,304.57,0,246.12,0,92.95h73.12c4.52,125.7,167.87,165.19,280.99,97.86"/>
  </g>
</svg>